<svg width="78" height="56" viewBox="0 0 78 56" fill="none" xmlns="http://www.w3.org/2000/svg">
<g id="logos:youtube-icon" clip-path="url(#clip0_178_1986)">
<path id="Vector" d="M76.2774 8.73444C75.83 7.04622 74.9572 5.50712 73.7461 4.2704C72.535 3.03368 71.0277 2.1425 69.3744 1.6856C63.3214 0 38.9604 0 38.9604 0C38.9604 0 14.5982 0.0510221 8.54532 1.73662C6.89194 2.19355 5.38463 3.08478 4.1735 4.32155C2.96237 5.55833 2.08967 7.09749 1.64232 8.78578C-0.188543 19.7674 -0.89877 36.5008 1.6926 47.0431C2.13999 48.7313 3.01271 50.2704 4.22383 51.5072C5.43496 52.7439 6.94225 53.6351 8.5956 54.092C14.6485 55.7776 39.0101 55.7776 39.0101 55.7776C39.0101 55.7776 63.3714 55.7776 69.424 54.092C71.0774 53.6351 72.5848 52.7439 73.796 51.5072C75.0071 50.2705 75.8799 48.7314 76.3273 47.0431C78.2584 36.046 78.8535 19.3228 76.2774 8.73444Z" fill="#72CAED"/>
<path id="Vector_2" d="M31.2068 39.8408L51.4161 27.8885L31.2068 15.9363V39.8408Z" fill="white"/>
</g>
<defs>
<clipPath id="clip0_178_1986">
<rect width="78" height="56" fill="white"/>
</clipPath>
</defs>
</svg>
