<svg width="24" height="24" viewBox="0 0 24 24" fill="none" xmlns="http://www.w3.org/2000/svg">
<g id="ico_viber 1">
<path id="Vector" d="M15.1968 10.4787C15.1385 10.0046 14.9927 9.63227 14.734 9.30249C14.3979 8.87786 13.9684 8.62358 13.3325 8.47274C12.9182 8.3722 12.7508 8.38373 12.6009 8.52063C12.4613 8.6489 12.4341 8.90601 12.5408 9.07252C12.6158 9.19336 12.7023 9.23666 12.943 9.28391C13.2635 9.34289 13.4852 9.41943 13.6866 9.53465C14.1143 9.78163 14.3135 10.1681 14.3349 10.7938C14.3448 11.0875 14.3702 11.1779 14.4728 11.282C14.663 11.4725 15.0015 11.4355 15.145 11.2076C15.1977 11.1216 15.2057 11.0843 15.2112 10.8848C15.215 10.7613 15.2097 10.5774 15.1968 10.4787Z" fill="white"/>
<path id="Vector_2" d="M16.8712 11.0126C16.7867 9.55993 16.2185 8.39117 15.2016 7.56886C14.6287 7.10681 13.9361 6.78909 13.177 6.63457C12.8989 6.5793 12.3869 6.53452 12.2991 6.56014C12.2163 6.58386 12.099 6.67361 12.0467 6.75477C11.9915 6.84277 11.979 7.03927 12.0262 7.15294C12.1023 7.34296 12.2437 7.41009 12.6401 7.44477C13.2513 7.49823 13.8815 7.71291 14.3577 8.03073C14.9014 8.3926 15.3335 8.88754 15.6131 9.46915C15.8547 9.96887 16.0032 10.689 15.9991 11.3339C15.9977 11.5672 16.0337 11.6989 16.1275 11.7952C16.2691 11.9433 16.4755 11.9756 16.6577 11.8773C16.8595 11.7711 16.9067 11.5848 16.8712 11.0126Z" fill="white"/>
<path id="Vector_3" d="M18.727 16.607C18.6986 16.5239 18.6323 16.3959 18.5849 16.3223C18.2865 15.8717 16.6832 14.6169 15.8827 14.2066C15.4256 13.9718 15.0869 13.8935 14.8359 13.967C14.5659 14.0429 14.4237 14.1686 13.9714 14.7308C13.789 14.9561 13.6019 15.1672 13.5523 15.2004C13.429 15.2858 13.1875 15.3546 13.0169 15.3546C12.6214 15.3522 11.9038 15.096 11.352 14.7592C10.9233 14.4983 10.3739 14.031 9.95233 13.5686C9.45496 13.0253 9.11633 12.5463 8.84868 12.0054C8.50291 11.3105 8.41529 10.8859 8.55973 10.5751C8.59526 10.4969 8.64264 10.4139 8.66393 10.3877C8.68526 10.3641 8.9079 10.1814 9.15418 9.98215C9.63734 9.59792 9.71549 9.51016 9.80549 9.24687C9.91917 8.91241 9.8884 8.57085 9.71314 8.22694C9.57812 7.96602 9.22524 7.39676 8.96947 7.02912C8.6308 6.54526 7.78766 5.5111 7.61948 5.37111C7.31634 5.12446 6.92797 5.08174 6.49926 5.24781C6.04694 5.42334 5.19906 6.10645 4.8367 6.58321C4.50985 7.01488 4.38438 7.32086 4.36541 7.72408C4.34885 8.05614 4.37725 8.19372 4.55251 8.61831C5.92379 11.9485 7.97001 14.6074 10.7813 16.7184C12.2497 17.8214 13.7725 18.6611 15.3521 19.2351C16.2734 19.5695 16.6737 19.5861 17.1449 19.311C17.3439 19.1924 17.8365 18.6872 18.1113 18.3195C18.566 17.7076 18.7341 17.4252 18.7815 17.2C18.8146 17.0458 18.7886 16.7777 18.727 16.607Z" fill="white"/>
<path id="Vector_4" d="M18.5786 11.3476C18.5482 10.5259 18.4099 9.85189 18.1214 9.10043C17.8365 8.36124 17.5483 7.87888 17.004 7.22647C16.4893 6.61476 16.0894 6.26549 15.4555 5.87669C14.571 5.335 13.4944 4.97652 12.288 4.82576C11.8766 4.77307 11.7835 4.77684 11.6573 4.86106C11.4127 5.0206 11.416 5.41854 11.6614 5.57569C11.7426 5.62567 11.8146 5.64389 12.1437 5.68697C12.6489 5.75498 12.9738 5.81908 13.3592 5.92424C14.8707 6.33744 16.033 7.18201 16.8102 8.43574C17.4604 9.48073 17.7305 10.5258 17.692 11.8605C17.6787 12.3118 17.6884 12.3912 17.7574 12.4996C17.8896 12.7017 18.2379 12.7416 18.4166 12.574C18.5277 12.4717 18.5487 12.3951 18.5707 12.0089C18.5811 11.8074 18.5834 11.51 18.5786 11.3476Z" fill="white"/>
</g>
</svg>
