<svg width="33" height="32" viewBox="0 0 33 32" fill="none" xmlns="http://www.w3.org/2000/svg">
<g id="ico_tg 1">
<path id="Vector" d="M13.566 23.3327C13.0476 23.3327 13.1357 23.137 12.9569 22.6434L11.4326 17.6268L23.166 10.666" fill="#C8DAEA"/>
<path id="Vector_2" d="M13.5664 23.3331C13.9664 23.3331 14.1431 23.1501 14.3664 22.9331L16.4998 20.8587L13.8387 19.2539" fill="#A9C9DD"/>
<path id="Vector_3" d="M13.8396 19.2557L20.2877 24.0195C21.0233 24.4255 21.5544 24.2152 21.7377 23.3363L24.3624 10.968C24.6312 9.89061 23.9517 9.40197 23.2478 9.72154L7.83582 15.6643C6.7838 16.0863 6.78993 16.6733 7.64406 16.9347L11.5991 18.1691L20.7555 12.3925C21.1878 12.1304 21.5845 12.2713 21.2589 12.5603" fill="url(#paint0_linear_191_294)"/>
</g>
<defs>
<linearGradient id="paint0_linear_191_294" x1="14.498" y1="16.9839" x2="16.2076" y2="22.5138" gradientUnits="userSpaceOnUse">
<stop stop-color="#EFF7FC"/>
<stop offset="1" stop-color="white"/>
</linearGradient>
</defs>
</svg>
