<svg width="32" height="32" viewBox="0 0 32 32" fill="none" xmlns="http://www.w3.org/2000/svg">
<g id="ico_tg 1" clip-path="url(#clip0_191_282)">
<path id="Vector" d="M16 32C24.8365 32 32 24.8365 32 16C32 7.16344 24.8365 0 16 0C7.16344 0 0 7.16344 0 16C0 24.8365 7.16344 32 16 32Z" fill="#37AEE2"/>
<path id="Vector_2" d="M13.066 23.3327C12.5476 23.3327 12.6357 23.137 12.4569 22.6434L10.9326 17.6268L22.666 10.666" fill="#C8DAEA"/>
<path id="Vector_3" d="M13.0664 23.3331C13.4664 23.3331 13.6431 23.1501 13.8664 22.9331L15.9998 20.8587L13.3387 19.2539" fill="#A9C9DD"/>
<path id="Vector_4" d="M13.3396 19.2557L19.7877 24.0195C20.5233 24.4255 21.0544 24.2152 21.2377 23.3363L23.8624 10.968C24.1312 9.89061 23.4517 9.40197 22.7478 9.72154L7.33582 15.6643C6.2838 16.0863 6.28993 16.6733 7.14406 16.9347L11.0991 18.1691L20.2555 12.3925C20.6878 12.1304 21.0845 12.2713 20.7589 12.5603" fill="url(#paint0_linear_191_282)"/>
</g>
<defs>
<linearGradient id="paint0_linear_191_282" x1="13.998" y1="16.9839" x2="15.7076" y2="22.5138" gradientUnits="userSpaceOnUse">
<stop stop-color="#EFF7FC"/>
<stop offset="1" stop-color="white"/>
</linearGradient>
<clipPath id="clip0_191_282">
<rect width="32" height="32" fill="white"/>
</clipPath>
</defs>
</svg>
