<svg width="32" height="32" viewBox="0 0 32 32" fill="none" xmlns="http://www.w3.org/2000/svg">
<g id="ico_viber 1" clip-path="url(#clip0_191_276)">
<path id="Vector" d="M16 0C24.8365 0 32 7.16344 32 16C32 24.8365 24.8365 32 16 32C7.16344 32 0 24.8365 0 16C0 7.16344 7.16344 0 16 0Z" fill="#7F4DA0"/>
<path id="Vector_2" d="M20.2621 13.9723C20.1844 13.3401 19.99 12.8437 19.645 12.404C19.1968 11.8378 18.6242 11.4988 17.7764 11.2976C17.2239 11.1636 17.0007 11.179 16.8008 11.3615C16.6148 11.5325 16.5784 11.8753 16.7207 12.0973C16.8207 12.2585 16.936 12.3162 17.257 12.3792C17.6844 12.4578 17.9799 12.5599 18.2485 12.7135C18.8188 13.0428 19.0844 13.5581 19.1128 14.3923C19.1261 14.784 19.1599 14.9045 19.2967 15.0434C19.5503 15.2973 20.0016 15.2479 20.193 14.9441C20.2632 14.8295 20.274 14.7797 20.2813 14.5137C20.2863 14.349 20.2792 14.1039 20.2621 13.9723Z" fill="white"/>
<path id="Vector_3" d="M22.4949 14.6828C22.3823 12.7459 21.6247 11.1876 20.2688 10.0912C19.505 9.47509 18.5815 9.05146 17.5693 8.84545C17.1986 8.77175 16.5159 8.71204 16.3988 8.7462C16.2884 8.77783 16.132 8.89749 16.0623 9.0057C15.9887 9.12305 15.972 9.38505 16.0349 9.5366C16.1364 9.78996 16.325 9.87946 16.8535 9.9257C17.6683 9.99698 18.5087 10.2832 19.1436 10.707C19.8685 11.1895 20.4447 11.8494 20.8175 12.6249C21.1395 13.2912 21.3376 14.2514 21.3322 15.1112C21.3303 15.4222 21.3783 15.5978 21.5034 15.7262C21.6922 15.9237 21.9674 15.9669 22.2103 15.8357C22.4794 15.6942 22.5423 15.4457 22.4949 14.6828Z" fill="white"/>
<path id="Vector_4" d="M24.9687 22.1433C24.9308 22.0325 24.8425 21.8618 24.7793 21.7637C24.3813 21.1629 22.2436 19.4898 21.1762 18.9428C20.5668 18.6297 20.1153 18.5253 19.7806 18.6233C19.4205 18.7245 19.231 18.8921 18.6279 19.6417C18.3847 19.9421 18.1353 20.2236 18.069 20.2679C17.9047 20.3817 17.5826 20.4735 17.3553 20.4735C16.8279 20.4703 15.8711 20.1287 15.1354 19.6796C14.5638 19.3317 13.8313 18.7087 13.2691 18.0921C12.606 17.3677 12.1545 16.729 11.7976 16.0079C11.3366 15.0813 11.2197 14.5151 11.4123 14.1008C11.4597 13.9965 11.5229 13.8858 11.5513 13.851C11.5797 13.8194 11.8766 13.5758 12.2049 13.3102C12.8491 12.7979 12.9533 12.6809 13.0733 12.3298C13.2249 11.8839 13.1839 11.4285 12.9502 10.9699C12.7702 10.622 12.2997 9.863 11.9586 9.37281C11.5071 8.72767 10.3829 7.34879 10.1587 7.16213C9.75447 6.83327 9.23665 6.77631 8.66503 6.99773C8.06194 7.23177 6.93143 8.14258 6.44828 8.77826C6.01249 9.35383 5.84519 9.7618 5.81989 10.2994C5.79781 10.7422 5.83569 10.9256 6.06937 11.4917C7.89773 15.932 10.626 19.4772 14.3744 22.2919C16.3322 23.7625 18.3626 24.8821 20.4689 25.6474C21.6972 26.0933 22.2309 26.1154 22.8593 25.7487C23.1245 25.5905 23.7813 24.9169 24.1477 24.4266C24.754 23.6108 24.9781 23.2343 25.0413 22.934C25.0855 22.7284 25.0508 22.3709 24.9687 22.1433Z" fill="white"/>
<path id="Vector_5" d="M24.7715 15.1308C24.731 14.0352 24.5465 13.1365 24.1619 12.1346C23.782 11.149 23.3977 10.5058 22.672 9.63595C21.9857 8.82033 21.4526 8.35464 20.6073 7.83624C19.428 7.11398 17.9926 6.63601 16.384 6.435C15.8355 6.36475 15.7114 6.36977 15.5431 6.48206C15.217 6.69478 15.2213 7.22537 15.5485 7.43491C15.6568 7.50155 15.7529 7.52583 16.1916 7.58327C16.8652 7.67396 17.2984 7.75942 17.8123 7.89964C19.8276 8.45057 21.3774 9.57667 22.4136 11.2483C23.2806 12.6416 23.6406 14.0351 23.5894 15.8147C23.5716 16.4163 23.5846 16.5223 23.6766 16.6667C23.8528 16.9362 24.3172 16.9895 24.5555 16.7659C24.7036 16.6296 24.7316 16.5274 24.7609 16.0125C24.7748 15.7438 24.7779 15.3473 24.7715 15.1308Z" fill="white"/>
</g>
<defs>
<clipPath id="clip0_191_276">
<rect width="32" height="32" fill="white"/>
</clipPath>
</defs>
</svg>
