<svg width="32" height="32" viewBox="0 0 32 32" fill="none" xmlns="http://www.w3.org/2000/svg">
<g id="ico_wa 1" clip-path="url(#clip0_191_273)">
<path id="Vector" d="M16 32C24.8365 32 32 24.8365 32 16C32 7.16344 24.8365 0 16 0C7.16344 0 0 7.16344 0 16C0 24.8365 7.16344 32 16 32Z" fill="#25D366"/>
<path id="Vector_2" fill-rule="evenodd" clip-rule="evenodd" d="M16.5276 24.9002H16.5238C14.9314 24.8997 13.3668 24.5002 11.9772 23.7421L6.93359 25.0652L8.28334 20.1351C7.45075 18.6922 7.01265 17.0556 7.01337 15.3787C7.01545 10.133 11.2835 5.86523 16.5276 5.86523C19.0727 5.86632 21.4615 6.85714 23.2577 8.65551C25.054 10.4538 26.0426 12.8441 26.0417 15.3862C26.0396 20.6308 21.7732 24.8981 16.5276 24.9002ZM12.2108 22.0197L12.4996 22.1913C13.7137 22.9117 15.1055 23.2929 16.5244 23.2935H16.5276C20.8862 23.2935 24.4335 19.746 24.4353 15.3857C24.4361 13.2727 23.6143 11.286 22.1214 9.79122C20.6284 8.29648 18.643 7.47291 16.5308 7.47218C12.1689 7.47218 8.62145 11.0193 8.61972 15.3793C8.6191 16.8735 9.03718 18.3287 9.82876 19.5876L10.0168 19.8868L9.21791 22.8049L12.2108 22.0197ZM20.9953 17.4346C21.161 17.5148 21.273 17.5689 21.3207 17.6487C21.3802 17.7477 21.3802 18.2237 21.1822 18.7791C20.9841 19.3345 20.0343 19.8412 19.5775 19.9095C19.1679 19.9706 18.6497 19.9962 18.0802 19.8153C17.735 19.7057 17.2922 19.5594 16.725 19.3145C14.4964 18.3522 12.9903 16.1922 12.7056 15.7839C12.6857 15.7553 12.6718 15.7353 12.664 15.7249L12.662 15.7224C12.5362 15.5545 11.6933 14.4298 11.6933 13.2657C11.6933 12.1707 12.2312 11.5968 12.4788 11.3326C12.4957 11.3145 12.5113 11.2978 12.5253 11.2826C12.7432 11.0446 13.0008 10.9851 13.1592 10.9851C13.3177 10.9851 13.4763 10.9865 13.6148 10.9935C13.6319 10.9943 13.6497 10.9942 13.6681 10.9941C13.8066 10.9933 13.9793 10.9923 14.1497 11.4016C14.2153 11.5591 14.3112 11.7925 14.4123 12.0388C14.6169 12.5368 14.8429 13.0871 14.8827 13.1667C14.9421 13.2857 14.9817 13.4245 14.9025 13.5832C14.8906 13.607 14.8796 13.6295 14.8691 13.6509C14.8096 13.7724 14.7658 13.8618 14.6648 13.9797C14.625 14.0261 14.584 14.0761 14.5429 14.1261C14.4612 14.2257 14.3794 14.3253 14.3082 14.3962C14.1892 14.5148 14.0653 14.6434 14.2039 14.8814C14.3426 15.1194 14.8197 15.8978 15.5264 16.5282C16.2862 17.2058 16.9463 17.4922 17.281 17.6373C17.3465 17.6657 17.3993 17.6887 17.4382 17.7081C17.6758 17.8271 17.8145 17.8073 17.9532 17.6487C18.0919 17.49 18.5474 16.9545 18.7058 16.7165C18.8644 16.4786 19.023 16.5183 19.2407 16.5975C19.4586 16.6769 20.6274 17.2519 20.8652 17.3709C20.9116 17.3941 20.955 17.4151 20.9953 17.4346Z" fill="#FDFDFD"/>
</g>
<defs>
<clipPath id="clip0_191_273">
<rect width="32" height="32" fill="white"/>
</clipPath>
</defs>
</svg>
