<svg width="28" height="28" viewBox="0 0 28 28" fill="none" xmlns="http://www.w3.org/2000/svg">
<g id="fa:facebook-square">
<path id="Vector" d="M21.2923 2.33398C22.4975 2.33398 23.5279 2.76186 24.3837 3.61762C25.2394 4.47338 25.6673 5.50383 25.6673 6.70898V21.2923C25.6673 22.4975 25.2394 23.5279 24.3837 24.3837C23.5279 25.2394 22.4975 25.6673 21.2923 25.6673H18.4364V16.6287H21.4594L21.9151 13.1044H18.4364V10.8561C18.4364 10.289 18.5554 9.86364 18.7934 9.58008C19.0314 9.29651 19.4947 9.15473 20.1834 9.15473L22.0367 9.13954V5.99501C21.3987 5.90386 20.4973 5.85829 19.3327 5.85829C17.9554 5.85829 16.854 6.26338 16.0286 7.07357C15.2033 7.88375 14.7906 9.02814 14.7906 10.5067V13.1044H11.7524V16.6287H14.7906V25.6673H6.70898C5.50383 25.6673 4.47338 25.2394 3.61762 24.3837C2.76186 23.5279 2.33398 22.4975 2.33398 21.2923V6.70898C2.33398 5.50383 2.76186 4.47338 3.61762 3.61762C4.47338 2.76186 5.50383 2.33398 6.70898 2.33398H21.2923Z" fill="white"/>
</g>
</svg>
