<svg width="28" height="28" viewBox="0 0 28 28" fill="none" xmlns="http://www.w3.org/2000/svg">
<g id="fa:twitter-square">
<path id="Vector" d="M21.7784 9.65603C21.2113 9.90922 20.5986 10.0814 19.9403 10.1725C20.629 9.76743 21.0999 9.17498 21.3531 8.39518C20.6948 8.78002 20.0163 9.03827 19.3175 9.16992C18.6997 8.50152 17.925 8.16732 16.9933 8.16732C16.1122 8.16732 15.3602 8.47873 14.7374 9.10156C14.1146 9.72439 13.8032 10.4763 13.8032 11.3574C13.8032 11.6511 13.8285 11.8942 13.8791 12.0866C12.5727 12.0157 11.3473 11.6866 10.2029 11.0992C9.05852 10.5118 8.0863 9.72692 7.28624 8.74457C6.99255 9.25094 6.8457 9.78769 6.8457 10.3548C6.8457 11.5093 7.3065 12.3955 8.22808 13.0132C7.7521 13.0031 7.24573 12.8715 6.70898 12.6183V12.6487C6.70898 13.4082 6.96217 14.0842 7.46853 14.6766C7.9749 15.2691 8.59773 15.6362 9.33702 15.778C9.04333 15.859 8.78508 15.8995 8.56228 15.8995C8.43063 15.8995 8.23314 15.8793 7.96983 15.8388C8.18251 16.4768 8.55975 17.0034 9.10156 17.4186C9.64337 17.8338 10.2586 18.0465 10.9473 18.0566C9.7725 18.9681 8.45088 19.4238 6.98242 19.4238C6.71911 19.4238 6.46593 19.4086 6.22287 19.3783C7.72172 20.3302 9.35221 20.8062 11.1144 20.8062C12.2486 20.8062 13.312 20.6264 14.3045 20.2669C15.2969 19.9074 16.1476 19.4264 16.8566 18.8238C17.5655 18.2212 18.1756 17.5275 18.6871 16.7426C19.1985 15.9578 19.5783 15.1374 19.8264 14.2817C20.0745 13.4259 20.1986 12.5727 20.1986 11.722C20.1986 11.5397 20.1935 11.403 20.1834 11.3118C20.8214 10.8561 21.3531 10.3042 21.7784 9.65603ZM25.6673 6.70898V21.2923C25.6673 22.4975 25.2394 23.5279 24.3837 24.3837C23.5279 25.2394 22.4975 25.6673 21.2923 25.6673H6.70898C5.50383 25.6673 4.47338 25.2394 3.61762 24.3837C2.76186 23.5279 2.33398 22.4975 2.33398 21.2923V6.70898C2.33398 5.50383 2.76186 4.47338 3.61762 3.61762C4.47338 2.76186 5.50383 2.33398 6.70898 2.33398H21.2923C22.4975 2.33398 23.5279 2.76186 24.3837 3.61762C25.2394 4.47338 25.6673 5.50383 25.6673 6.70898Z" fill="white"/>
</g>
</svg>
