<svg width="28" height="28" viewBox="0 0 28 28" fill="none" xmlns="http://www.w3.org/2000/svg">
<g id="ri:instagram-fill">
<path id="Vector" d="M15.2007 2.33347C16.052 2.3302 16.9034 2.33876 17.7545 2.35913L17.9808 2.3673C18.2422 2.37663 18.5 2.3883 18.8115 2.4023C20.0528 2.46063 20.8998 2.65663 21.643 2.9448C22.413 3.24113 23.0617 3.64247 23.7103 4.29113C24.3034 4.87401 24.7625 5.57907 25.0555 6.3573C25.3437 7.10047 25.5397 7.94863 25.598 9.18997C25.612 9.5003 25.6237 9.7593 25.633 10.0206L25.64 10.247C25.6607 11.0977 25.6697 11.9487 25.6668 12.7996L25.668 13.67V15.1983C25.6709 16.0497 25.6619 16.901 25.6412 17.7521L25.6342 17.9785C25.6248 18.2398 25.6132 18.4976 25.5992 18.8091C25.5408 20.0505 25.3425 20.8975 25.0555 21.6406C24.7634 22.4197 24.3043 23.1253 23.7103 23.708C23.1269 24.301 22.4215 24.76 21.643 25.0531C20.8998 25.3413 20.0528 25.5373 18.8115 25.5956C18.5 25.6096 18.2422 25.6213 17.9808 25.6306L17.7545 25.6376C16.9034 25.6584 16.052 25.6673 15.2007 25.6645L14.3303 25.6656H12.8032C11.9518 25.6685 11.1004 25.6596 10.2493 25.6388L10.023 25.6318C9.74604 25.6218 9.46914 25.6101 9.19232 25.5968C7.95099 25.5385 7.10399 25.3401 6.35966 25.0531C5.58112 24.7607 4.87593 24.3016 4.29349 23.708C3.69971 23.125 3.24025 22.4195 2.94716 21.6406C2.65899 20.8975 2.46299 20.0505 2.40466 18.8091C2.39166 18.5323 2.38 18.2554 2.36966 17.9785L2.36382 17.7521C2.34232 16.901 2.33259 16.0497 2.33466 15.1983V12.7996C2.3314 11.9487 2.33996 11.0977 2.36032 10.247L2.36849 10.0206C2.37782 9.7593 2.38949 9.5003 2.40349 9.18997C2.46182 7.94747 2.65782 7.10163 2.94599 6.3573C3.23926 5.57869 3.69962 4.87382 4.29466 4.2923C4.8767 3.69818 5.58145 3.2383 6.35966 2.9448C7.10399 2.65663 7.94982 2.46063 9.19232 2.4023L10.023 2.3673L10.2493 2.36147C11.1 2.33997 11.951 2.33025 12.802 2.3323L15.2007 2.33347ZM14.0013 8.1668C13.2284 8.15587 12.461 8.29866 11.7438 8.58688C11.0266 8.8751 10.3737 9.30299 9.82331 9.8457C9.27288 10.3884 8.83579 11.0351 8.53746 11.7482C8.23913 12.4613 8.0855 13.2266 8.0855 13.9995C8.0855 14.7725 8.23913 15.5378 8.53746 16.2509C8.83579 16.964 9.27288 17.6107 9.82331 18.1534C10.3737 18.6961 11.0266 19.124 11.7438 19.4122C12.461 19.7004 13.2284 19.8432 14.0013 19.8323C15.5484 19.8323 17.0322 19.2177 18.1261 18.1238C19.2201 17.0298 19.8347 15.5461 19.8347 13.999C19.8347 12.4519 19.2201 10.9681 18.1261 9.87418C17.0322 8.78021 15.5484 8.1668 14.0013 8.1668ZM14.0013 10.5001C14.4662 10.4916 14.9282 10.5757 15.3603 10.7477C15.7923 10.9197 16.1857 11.176 16.5176 11.5018C16.8494 11.8275 17.113 12.2161 17.293 12.6449C17.473 13.0736 17.5657 13.534 17.5658 13.999C17.5659 14.464 17.4733 14.9243 17.2935 15.3531C17.1136 15.782 16.8501 16.1706 16.5184 16.4965C16.1867 16.8223 15.7933 17.0788 15.3613 17.2509C14.9294 17.4231 14.4674 17.5074 14.0025 17.499C13.0742 17.499 12.184 17.1302 11.5276 16.4738C10.8712 15.8175 10.5025 14.9272 10.5025 13.999C10.5025 13.0707 10.8712 12.1805 11.5276 11.5241C12.184 10.8677 13.0742 10.499 14.0025 10.499L14.0013 10.5001ZM20.1263 6.4168C19.75 6.43186 19.394 6.59198 19.133 6.8636C18.8721 7.13522 18.7263 7.49729 18.7263 7.87397C18.7263 8.25064 18.8721 8.61271 19.133 8.88433C19.394 9.15596 19.75 9.31607 20.1263 9.33113C20.5131 9.33113 20.884 9.17749 21.1575 8.904C21.431 8.63051 21.5847 8.25957 21.5847 7.8728C21.5847 7.48603 21.431 7.11509 21.1575 6.8416C20.884 6.56811 20.5131 6.41447 20.1263 6.41447V6.4168Z" fill="white"/>
</g>
</svg>
