<svg width="28" height="28" viewBox="0 0 28 28" fill="none" xmlns="http://www.w3.org/2000/svg">
<g id="ri:youtube-fill">
<path id="Vector" d="M14.2853 4.66797C14.9083 4.67147 16.467 4.68664 18.1237 4.75314L18.7117 4.7788C20.3788 4.85697 22.0448 4.9923 22.872 5.22214C23.9745 5.53247 24.8402 6.43547 25.133 7.58114C25.5997 9.40114 25.658 12.9501 25.665 13.81L25.6662 13.9873V14.1903C25.658 15.0501 25.5997 18.6003 25.133 20.4191C24.8367 21.5683 23.9698 22.4725 22.872 22.7781C22.0448 23.008 20.3788 23.1433 18.7117 23.2215L18.1237 23.2483C16.467 23.3136 14.9083 23.33 14.2853 23.3323L14.0112 23.3335H13.7137C12.3953 23.3253 6.88165 23.2658 5.12698 22.7781C4.02565 22.4678 3.15882 21.5648 2.86598 20.4191C2.39932 18.5991 2.34098 15.0501 2.33398 14.1903V13.81C2.34098 12.9501 2.39932 9.39997 2.86598 7.58114C3.16232 6.43197 4.02915 5.5278 5.12815 5.2233C6.88165 4.73447 12.3965 4.67497 13.7148 4.66797H14.2853ZM11.6662 9.91797V18.0846L18.6662 14.0013L11.6662 9.91797Z" fill="white"/>
</g>
</svg>
