<svg width="28" height="28" viewBox="0 0 28 28" fill="none" xmlns="http://www.w3.org/2000/svg">
<g clip-path="url(#clip0_178_2154)">
<path fill-rule="evenodd" clip-rule="evenodd" d="M7.80078 2.33594H20.1966C23.2169 2.33594 25.6654 4.78438 25.6654 7.80469V20.2005C25.6654 23.2208 23.2169 25.6693 20.1966 25.6693H7.80078C4.78047 25.6693 2.33203 23.2208 2.33203 20.2005V7.80469C2.33203 4.78438 4.78047 2.33594 7.80078 2.33594ZM21.801 22.1693H19.1451C19.0488 22.1693 18.9565 22.131 18.8884 22.0628C18.8203 21.9946 18.7821 21.9021 18.7821 21.8057V16.864C18.7821 15.5988 18.7596 13.9703 17.0233 13.9703C15.2619 13.9703 14.9924 15.3486 14.9924 16.7718V21.8052C14.9924 21.9016 14.9542 21.9941 14.8861 22.0623C14.818 22.1305 14.7257 22.1688 14.6294 22.1688H11.9736C11.8774 22.1688 11.7851 22.1305 11.717 22.0623C11.6489 21.9941 11.6107 21.9016 11.6107 21.8052V11.6226C11.6107 11.5262 11.6489 11.4337 11.717 11.3655C11.7851 11.2973 11.8774 11.259 11.9736 11.259H14.4941C14.5904 11.259 14.6827 11.2973 14.7508 11.3655C14.8189 11.4337 14.8571 11.5262 14.8571 11.6226V12.721C14.8572 12.7273 14.8593 12.7335 14.8632 12.7385C14.867 12.7435 14.8724 12.7471 14.8786 12.7488C14.8847 12.7505 14.8912 12.7501 14.897 12.7477C14.9029 12.7453 14.9079 12.7411 14.9111 12.7356C15.5741 11.6121 16.8029 10.9392 18.1058 10.9878C21.5334 10.9878 22.1654 13.2462 22.1654 16.1843L22.164 21.8058C22.164 21.9022 22.1257 21.9946 22.0577 22.0628C21.9896 22.131 21.8973 22.1693 21.801 22.1693ZM7.79493 9.76772C6.7183 9.76772 5.83203 8.88035 5.83203 7.80183C5.83203 6.72339 6.71784 5.83594 7.79457 5.83594C8.87103 5.83594 9.75684 6.72321 9.75702 7.80146C9.75702 8.87972 8.8713 9.76763 7.79493 9.76772ZM9.12283 22.1693H6.4635C6.36723 22.1693 6.27491 22.131 6.20684 22.0628C6.13877 21.9946 6.10053 21.9021 6.10053 21.8057V11.6226C6.10053 11.5262 6.13877 11.4337 6.20684 11.3655C6.27491 11.2973 6.36723 11.259 6.4635 11.259H9.12283C9.2191 11.259 9.31142 11.2973 9.37949 11.3655C9.44756 11.4337 9.4858 11.5262 9.4858 11.6226V21.8057C9.4858 21.9021 9.44756 21.9946 9.37949 22.0628C9.31142 22.131 9.2191 22.1693 9.12283 22.1693Z" fill="white"/>
</g>
<defs>
<clipPath id="clip0_178_2154">
<rect width="28" height="28" fill="white"/>
</clipPath>
</defs>
</svg>
