<svg width="32" height="32" viewBox="0 0 32 32" fill="none" xmlns="http://www.w3.org/2000/svg">
<path d="M24.3337 2.66699C25.711 2.66699 26.8886 3.156 27.8666 4.13401C28.8447 5.11202 29.3337 6.28968 29.3337 7.66699V24.3337C29.3337 25.711 28.8447 26.8886 27.8666 27.8666C26.8886 28.8447 25.711 29.3337 24.3337 29.3337H21.0698V19.0038H24.5246L25.0455 14.976H21.0698V12.4066C21.0698 11.7584 21.2058 11.2723 21.4778 10.9482C21.7497 10.6242 22.2793 10.4621 23.0663 10.4621L25.1844 10.4448V6.85102C24.4552 6.74685 23.4251 6.69477 22.0941 6.69477C20.52 6.69477 19.2613 7.15773 18.318 8.08366C17.3747 9.00958 16.9031 10.3175 16.9031 12.0073V14.976H13.4309V19.0038H16.9031V29.3337H7.66699C6.28968 29.3337 5.11202 28.8447 4.13401 27.8666C3.156 26.8886 2.66699 25.711 2.66699 24.3337V7.66699C2.66699 6.28968 3.156 5.11202 4.13401 4.13401C5.11202 3.156 6.28968 2.66699 7.66699 2.66699H24.3337Z" fill="#BDD1D8"/>
</svg>
