<svg width="32" height="32" viewBox="0 0 32 32" fill="none" xmlns="http://www.w3.org/2000/svg">
<path d="M17.3718 2.66766C18.3447 2.66392 19.3177 2.6737 20.2904 2.69699L20.5491 2.70632C20.8478 2.71699 21.1424 2.73032 21.4984 2.74632C22.9171 2.81299 23.8851 3.03699 24.7344 3.36632C25.6144 3.70499 26.3558 4.16366 27.0971 4.90499C27.7749 5.57113 28.2995 6.37692 28.6344 7.26632C28.9638 8.11566 29.1878 9.08499 29.2544 10.5037C29.2704 10.8583 29.2838 11.1543 29.2944 11.453L29.3024 11.7117C29.3261 12.6839 29.3363 13.6565 29.3331 14.629L29.3344 15.6237V17.3703C29.3377 18.3433 29.3275 19.3163 29.3038 20.289L29.2958 20.5477C29.2851 20.8463 29.2718 21.141 29.2558 21.497C29.1891 22.9157 28.9624 23.8837 28.6344 24.733C28.3006 25.6233 27.7759 26.4298 27.0971 27.0957C26.4304 27.7734 25.6242 28.298 24.7344 28.633C23.8851 28.9623 22.9171 29.1863 21.4984 29.253C21.1424 29.269 20.8478 29.2823 20.5491 29.293L20.2904 29.301C19.3177 29.3247 18.3447 29.3349 17.3718 29.3317L16.3771 29.333H14.6318C13.6588 29.3363 12.6858 29.3261 11.7131 29.3023L11.4544 29.2943C11.1379 29.2828 10.8215 29.2695 10.5051 29.2543C9.08643 29.1877 8.11843 28.961 7.26776 28.633C6.37801 28.2988 5.57208 27.7741 4.90643 27.0957C4.22782 26.4294 3.70273 25.6231 3.36776 24.733C3.03843 23.8837 2.81443 22.9157 2.74776 21.497C2.73291 21.1806 2.71958 20.8642 2.70776 20.5477L2.70109 20.289C2.67651 19.3163 2.6654 18.3433 2.66776 17.3703V14.629C2.66404 13.6565 2.67382 12.6839 2.69709 11.7117L2.70643 11.453C2.71709 11.1543 2.73043 10.8583 2.74643 10.5037C2.81309 9.08366 3.03709 8.11699 3.36643 7.26632C3.70159 6.37648 4.22771 5.57092 4.90776 4.90632C5.57295 4.22733 6.37838 3.70175 7.26776 3.36632C8.11843 3.03699 9.08509 2.81299 10.5051 2.74632L11.4544 2.70632L11.7131 2.69966C12.6853 2.67509 13.6579 2.66397 14.6304 2.66632L17.3718 2.66766ZM16.0011 9.33432C15.1178 9.32183 14.2408 9.48502 13.4211 9.81441C12.6014 10.1438 11.8553 10.6328 11.2262 11.2531C10.5972 11.8733 10.0976 12.6124 9.75668 13.4273C9.41573 14.2423 9.24015 15.1169 9.24015 16.0003C9.24015 16.8837 9.41573 17.7583 9.75668 18.5733C10.0976 19.3883 10.5972 20.1273 11.2262 20.7476C11.8553 21.3678 12.6014 21.8568 13.4211 22.1862C14.2408 22.5156 15.1178 22.6788 16.0011 22.6663C17.7692 22.6663 19.4649 21.9639 20.7151 20.7137C21.9654 19.4635 22.6678 17.7678 22.6678 15.9997C22.6678 14.2315 21.9654 12.5359 20.7151 11.2856C19.4649 10.0354 17.7692 9.33432 16.0011 9.33432ZM16.0011 12.001C16.5324 11.9912 17.0604 12.0874 17.5542 12.2839C18.0479 12.4805 18.4975 12.7734 18.8768 13.1457C19.2561 13.518 19.5573 13.9621 19.763 14.4521C19.9687 14.9421 20.0747 15.4682 20.0748 15.9996C20.0749 16.5311 19.9691 17.0572 19.7635 17.5473C19.558 18.0374 19.2569 18.4816 18.8778 18.854C18.4986 19.2264 18.0491 19.5195 17.5554 19.7162C17.0617 19.9129 16.5338 20.0093 16.0024 19.9997C14.9416 19.9997 13.9241 19.5782 13.174 18.8281C12.4239 18.0779 12.0024 17.0605 12.0024 15.9997C12.0024 14.9388 12.4239 13.9214 13.174 13.1712C13.9241 12.4211 14.9416 11.9997 16.0024 11.9997L16.0011 12.001ZM23.0011 7.33432C22.571 7.35154 22.1642 7.53452 21.8659 7.84495C21.5677 8.15538 21.4011 8.56917 21.4011 8.99966C21.4011 9.43014 21.5677 9.84393 21.8659 10.1544C22.1642 10.4648 22.571 10.6478 23.0011 10.665C23.4431 10.665 23.867 10.4894 24.1796 10.1768C24.4922 9.86427 24.6678 9.44035 24.6678 8.99832C24.6678 8.55629 24.4922 8.13237 24.1796 7.81981C23.867 7.50725 23.4431 7.33166 23.0011 7.33166V7.33432Z" fill="#BDD1D8"/>
</svg>
