<svg width="33" height="33" viewBox="0 0 33 33" fill="none" xmlns="http://www.w3.org/2000/svg">
<g clip-path="url(#clip0_104_543)">
<path d="M25.2656 0H7.73438C3.4628 0 0 3.4628 0 7.73438V25.2656C0 29.5372 3.4628 33 7.73438 33H25.2656C29.5372 33 33 29.5372 33 25.2656V7.73438C33 3.4628 29.5372 0 25.2656 0Z" fill="white"/>
<path d="M23.8047 2.75H9.19531C5.63566 2.75 2.75 5.63566 2.75 9.19531V23.8047C2.75 27.3643 5.63566 30.25 9.19531 30.25H23.8047C27.3643 30.25 30.25 27.3643 30.25 23.8047V9.19531C30.25 5.63566 27.3643 2.75 23.8047 2.75Z" fill="#BDD1D8"/>
<path d="M22.5654 26.125H25.6956C25.8091 26.125 25.9178 26.0799 25.9981 25.9995C26.0783 25.9192 26.1234 25.8102 26.1234 25.6966L26.125 19.0713C26.125 15.6085 25.3801 12.9468 21.3405 12.9468C19.8049 12.8896 18.3568 13.6826 17.5753 15.0067C17.5715 15.0132 17.5657 15.0182 17.5588 15.021C17.5518 15.0238 17.5442 15.0243 17.537 15.0223C17.5298 15.0204 17.5234 15.0161 17.5188 15.0102C17.5143 15.0042 17.5118 14.997 17.5117 14.9895V13.695C17.5117 13.5814 17.4666 13.4724 17.3864 13.392C17.3062 13.3116 17.1974 13.2665 17.0839 13.2665H14.1133C13.9999 13.2665 13.8911 13.3116 13.8108 13.392C13.7306 13.4724 13.6855 13.5814 13.6855 13.695V25.6959C13.6855 25.8096 13.7306 25.9186 13.8108 25.999C13.8911 26.0793 13.9999 26.1245 14.1133 26.1245H17.2434C17.3568 26.1245 17.4656 26.0793 17.5459 25.999C17.6261 25.9186 17.6711 25.8096 17.6711 25.6959V19.7637C17.6711 18.0864 17.9888 16.4619 20.0647 16.4619C22.1111 16.4619 22.1376 18.3813 22.1376 19.8724V25.6965C22.1376 25.8101 22.1826 25.9191 22.2629 25.9995C22.3431 26.0799 22.4519 26.125 22.5654 26.125ZM6.875 9.19194C6.875 10.4631 7.91953 11.5089 9.18842 11.5089C10.457 11.5088 11.5009 10.4623 11.5009 9.19151C11.5007 7.92071 10.4567 6.875 9.18799 6.875C7.91899 6.875 6.875 7.92093 6.875 9.19194ZM7.61923 26.125H10.7534C10.8669 26.125 10.9757 26.0799 11.0559 25.9995C11.1362 25.9191 11.1812 25.8101 11.1812 25.6965V13.695C11.1812 13.5814 11.1362 13.4724 11.0559 13.392C10.9757 13.3116 10.8669 13.2665 10.7534 13.2665H7.61923C7.50577 13.2665 7.39697 13.3116 7.31674 13.392C7.23652 13.4724 7.19145 13.5814 7.19145 13.695V25.6965C7.19145 25.8101 7.23652 25.9191 7.31674 25.9995C7.39697 26.0799 7.50577 26.125 7.61923 26.125Z" fill="white"/>
</g>
<defs>
<clipPath id="clip0_104_543">
<rect width="33" height="33" fill="white"/>
</clipPath>
</defs>
</svg>
