<svg width="32" height="32" viewBox="0 0 32 32" fill="none" xmlns="http://www.w3.org/2000/svg">
<path d="M24.8892 11.035C24.2411 11.3244 23.5408 11.5212 22.7885 11.6253C23.5756 11.1624 24.1138 10.4853 24.4031 9.59408C23.6508 10.0339 22.8753 10.329 22.0767 10.4795C21.3707 9.7156 20.4853 9.33366 19.4205 9.33366C18.4135 9.33366 17.5541 9.68956 16.8423 10.4014C16.1305 11.1132 15.7746 11.9725 15.7746 12.9795C15.7746 13.3151 15.8036 13.5929 15.8614 13.8128C14.3684 13.7318 12.9679 13.3556 11.66 12.6844C10.3522 12.0131 9.24107 11.1161 8.32671 9.99338C7.99107 10.5721 7.82324 11.1855 7.82324 11.8337C7.82324 13.1531 8.34986 14.1658 9.4031 14.8719C8.85912 14.8603 8.28042 14.7098 7.66699 14.4205V14.4552C7.66699 15.3232 7.95634 16.0958 8.53505 16.7729C9.11375 17.45 9.82556 17.8695 10.6705 18.0316C10.3348 18.1242 10.0397 18.1705 9.78505 18.1705C9.63458 18.1705 9.40889 18.1473 9.10796 18.101C9.35102 18.8302 9.78215 19.432 10.4014 19.9066C11.0206 20.3811 11.7237 20.6242 12.5107 20.6357C11.1681 21.6774 9.65773 22.1982 7.97949 22.1982C7.67857 22.1982 7.38921 22.1809 7.11144 22.1462C8.8244 23.2341 10.6878 23.7781 12.7017 23.7781C13.998 23.7781 15.2133 23.5727 16.3475 23.1618C17.4818 22.7509 18.454 22.2011 19.2642 21.5125C20.0744 20.8238 20.7717 20.031 21.3562 19.134C21.9407 18.237 22.3747 17.2995 22.6583 16.3215C22.9419 15.3435 23.0837 14.3684 23.0837 13.3962C23.0837 13.1878 23.0779 13.0316 23.0663 12.9274C23.7955 12.4066 24.4031 11.7758 24.8892 11.035ZM29.3337 7.66699V24.3337C29.3337 25.711 28.8447 26.8886 27.8666 27.8666C26.8886 28.8447 25.711 29.3337 24.3337 29.3337H7.66699C6.28968 29.3337 5.11202 28.8447 4.13401 27.8666C3.156 26.8886 2.66699 25.711 2.66699 24.3337V7.66699C2.66699 6.28968 3.156 5.11202 4.13401 4.13401C5.11202 3.156 6.28968 2.66699 7.66699 2.66699H24.3337C25.711 2.66699 26.8886 3.156 27.8666 4.13401C28.8447 5.11202 29.3337 6.28968 29.3337 7.66699Z" fill="#BDD1D8"/>
</svg>
