<svg width="162" height="177" viewBox="0 0 162 177" fill="none" xmlns="http://www.w3.org/2000/svg">
<path fill-rule="evenodd" clip-rule="evenodd" d="M80.9654 0C36.2644 0 0 36.4916 0 81.4726C0 102.344 7.81359 121.386 20.6372 135.805L11.4997 176.267C25.9588 162.24 48.7765 142.936 56.668 132.827C59.6792 128.961 59.1081 126.506 59.1081 126.506C49.7111 122.849 40.7812 115.3 35.5635 108.273C34.2137 106.445 28.7623 97.3282 33.1494 94.6377C38.1334 91.5815 40.0284 101.325 52.6704 109.266C52.8002 109.344 52.9559 109.449 53.1117 109.553C53.8645 109.919 54.5394 110.232 55.1364 110.441C70.2964 116.136 84.1583 109.893 90.9336 103.623C98.0463 97.0148 101.758 91.7121 105.808 83.2227C107.106 80.5061 110.688 72.3823 114.66 74.8116C118.917 77.3976 112.765 93.5929 110.844 97.067C108.17 101.899 99.7596 116.554 94.9572 122.326C94.5419 122.823 94.3082 123.476 94.2823 124.129C94.2044 134.316 93.0622 144.164 90.2846 151.164C88.7011 155.161 87.2734 158.922 85.8457 162.841C128.288 160.307 161.957 124.86 161.957 81.4987C161.957 38.1372 125.692 0 80.9654 0ZM69.7253 107.646C61.73 107.646 55.2143 101.09 55.2143 93.0443C55.2143 84.9989 61.73 78.4425 69.7253 78.4425C77.7206 78.4425 84.2362 84.9989 84.2362 93.0443C84.2362 101.09 77.7206 107.646 69.7253 107.646ZM95.113 49.9441C96.8522 54.3325 93.0362 60.8106 90.648 56.7095C90.051 55.6646 90.2587 54.2541 90.8817 52.8958C90.7 53.0003 90.5442 53.0786 90.4404 53.1309C87.2734 54.8026 80.7578 52.5823 80.6799 48.5335C80.5241 39.8351 90.4923 43.6749 94.1525 48.2984C91.946 42.8129 93.5035 32.1815 100.954 36.596C104.406 38.6335 103.16 45.4512 100.149 47.4103C100.045 47.4887 99.8894 47.567 99.7336 47.6715C101.187 47.8021 102.537 48.2984 103.134 49.3433C105.522 53.4443 98.0723 53.6272 95.087 49.9441H95.113ZM110.636 28.838C112.246 23.457 117.619 27.7931 118.969 31.3718C118.684 27.558 121.721 21.3412 125.459 25.5206C127.172 27.4536 125.095 31.3979 122.837 32.0248C122.759 32.0248 122.655 32.077 122.525 32.1032C123.408 32.4689 124.135 33.0435 124.291 33.8011C124.94 36.805 120.345 35.4206 119.229 32.5733C119.436 35.6296 115.828 38.8425 115.153 35.8385C114.997 35.081 115.413 34.2451 116.036 33.5398C115.906 33.5398 115.802 33.5921 115.724 33.5921C113.44 33.9839 109.883 31.3195 110.636 28.838ZM128.314 67.7327C128.158 67.6805 127.951 67.576 127.717 67.4976C128.704 69.1433 129.197 70.9718 128.548 72.4084C126.03 78.1029 120.163 70.2665 121.773 64.2847C118.45 69.4828 108.741 70.371 111.233 64.7026C111.882 63.266 113.544 62.404 115.413 62.0383C115.179 61.9076 114.971 61.8293 114.816 61.7509C110.61 59.6351 107.989 50.9889 112.194 47.8282C121.253 41.0106 124.836 54.5675 122.759 62.0383C126.861 55.4818 139.243 49.0298 140.307 60.3665C140.8 65.6169 132.675 69.4828 128.288 67.785L128.314 67.7327Z" fill="#72CAEE"/>
</svg>
