<svg width="182" height="34" viewBox="0 0 182 34" fill="none" xmlns="http://www.w3.org/2000/svg">
<path d="M39 22.2906V9.15376H47.4183V11.5819H41.6818V22.2906H39ZM48.3191 15.7221C48.288 13.8544 48.9715 12.2356 50.359 10.8867C51.7465 9.5377 53.3825 8.87359 55.2774 8.9151C57.1723 8.87359 58.8186 9.52732 60.2165 10.8867C61.6144 12.2356 62.2978 13.8544 62.2771 15.7221C62.3081 17.5899 61.6144 19.2087 60.2165 20.5577C58.8186 21.9066 57.1723 22.5707 55.2774 22.5292C53.3825 22.5707 51.7465 21.917 50.359 20.5577C48.9715 19.2087 48.2984 17.5899 48.3191 15.7221ZM59.502 15.7221C59.502 14.477 59.0982 13.4393 58.3009 12.6299C57.5036 11.8102 56.4992 11.4055 55.2877 11.4055C54.0763 11.4055 53.0615 11.8102 52.2642 12.6195C51.4669 13.4289 51.0734 14.4666 51.0734 15.7221C51.0734 16.9777 51.4669 18.0154 52.2642 18.8248C53.0615 19.6341 54.0659 20.0388 55.2877 20.0388C56.5096 20.0388 57.4933 19.6341 58.3009 18.8248C59.0982 18.0154 59.502 16.9777 59.502 15.7221ZM65.839 9.15376H74.8372V22.2906H72.1554V11.5819H68.3862C68.3344 14.3836 68.1481 16.573 67.8167 18.171C67.4957 19.7587 67.0402 20.8793 66.4707 21.5019C65.8907 22.1349 65.1247 22.4566 64.1616 22.4877C63.768 22.4877 63.3851 22.4255 63.0331 22.2906V19.9973C63.1366 20.0284 63.3125 20.0388 63.5715 20.0388C64.3686 20.0388 64.9279 19.3851 65.2695 18.0673C65.6113 16.7494 65.7977 14.5911 65.839 11.5819L65.8596 9.15376H65.839ZM77.0945 15.7221C77.0634 13.8544 77.7469 12.2356 79.1344 10.8867C80.5217 9.5377 82.1578 8.87359 84.0526 8.9151C85.9477 8.87359 87.594 9.52732 88.9918 10.8867C90.3897 12.2356 91.0732 13.8544 91.0525 15.7221C91.0834 17.5899 90.3897 19.2087 88.9918 20.5577C87.594 21.9066 85.9477 22.5707 84.0526 22.5292C82.1578 22.5707 80.5217 21.917 79.1344 20.5577C77.7469 19.2087 77.0737 17.5899 77.0945 15.7221ZM88.2775 15.7221C88.2775 14.477 87.8736 13.4393 87.0763 12.6299C86.2789 11.8102 85.2745 11.4055 84.0631 11.4055C82.8517 11.4055 81.8369 11.8102 81.0395 12.6195C80.2423 13.4289 79.8487 14.4666 79.8487 15.7221C79.8487 16.9777 80.2423 18.0154 81.0395 18.8248C81.8369 19.6341 82.8412 20.0388 84.0631 20.0388C85.2849 20.0388 86.2687 19.6341 87.0763 18.8248C87.8736 18.0154 88.2775 16.9777 88.2775 15.7221ZM92.5436 15.7221C92.5125 13.8336 93.1959 12.2252 94.5937 10.8763C95.9812 9.52732 97.6275 8.87359 99.5432 8.9151C100.786 8.9151 101.914 9.20564 102.929 9.77636C103.944 10.3471 104.741 11.1564 105.321 12.1734L103.292 13.6053C102.349 12.1319 101.096 11.3951 99.5328 11.3951C98.3109 11.3951 97.3065 11.8102 96.4989 12.6299C95.7015 13.4497 95.2977 14.4873 95.2977 15.7325C95.2977 16.9777 95.7015 18.005 96.4989 18.8144C97.2963 19.6238 98.3109 20.0284 99.5328 20.0284C101.096 20.0284 102.349 19.2917 103.292 17.8182L105.321 19.2502C104.752 20.2671 103.954 21.0765 102.94 21.6472C101.925 22.2283 100.786 22.5085 99.5226 22.5085C97.6068 22.55 95.9501 21.8962 94.5626 20.5473C93.175 19.1983 92.502 17.5899 92.5436 15.7014V15.7221ZM117.943 8.9151H118.834V22.2906H116.152V14.1553L108.469 22.5292H107.599V9.15376H110.281V17.2164L117.943 8.9151Z" fill="#72CAEE"/>
<path d="M138.572 19.9531H140.301V25.1196H137.651V22.3518H129.591V25.1196H126.941V19.9531H127.985C129.049 19.0716 129.57 16.2628 129.57 11.5167V9.37424H138.572V19.9531ZM130.859 19.9531H135.923V11.7729H132.056C131.995 15.8015 131.596 18.5283 130.859 19.9531ZM142.254 22.3518V9.37424H144.904V22.3518H142.254ZM150.785 22.3518V11.7729H146.643V9.37424H157.588V11.7729H153.425V22.3518H150.775H150.785ZM159.337 22.3518V9.37424H168.052V11.7729H161.986V14.4074H166.436V16.6729H161.986V19.9531H168.287V22.3518H159.337ZM180.797 9.13846H181.677V22.3518H179.028V14.3151L171.438 22.5876H170.579V9.37424H173.228V17.3392L180.797 9.13846ZM173.392 6.19648V5.8992H175.509V6.26823C175.509 6.73977 175.622 7.1088 175.847 7.36507C176.072 7.6316 176.379 7.75461 176.788 7.75461C177.197 7.75461 177.504 7.62134 177.729 7.36507C177.954 7.09855 178.066 6.73977 178.066 6.26823V5.8992H180.163V6.19648C180.163 7.20106 179.846 8.04163 179.222 8.69768C178.598 9.3435 177.78 9.66126 176.788 9.66126C175.795 9.66126 174.967 9.3435 174.333 8.69768C173.709 8.04163 173.392 7.21131 173.392 6.19648Z" fill="#72CAEE"/>
<path fill-rule="evenodd" clip-rule="evenodd" d="M15.0417 0.300171C6.73717 0.300171 0 7.07955 0 15.4361C0 19.3136 1.4516 22.8512 3.83396 25.5299L2.1364 33.0469C4.8226 30.441 9.06166 26.8547 10.5277 24.9767C11.0872 24.2584 10.9811 23.8023 10.9811 23.8023C9.23529 23.123 7.5763 21.7205 6.60696 20.415C6.35619 20.0754 5.34344 18.3817 6.15847 17.8819C7.08439 17.3141 7.43644 19.1242 9.78506 20.5995C9.80918 20.614 9.8381 20.6335 9.86705 20.6528C10.0069 20.7208 10.1323 20.779 10.2432 20.8178C13.0596 21.8758 15.6349 20.716 16.8936 19.5512C18.215 18.3235 18.9045 17.3384 19.6569 15.7612C19.8981 15.2565 20.5635 13.7473 21.3014 14.1986C22.0923 14.679 20.9494 17.6878 20.5925 18.3332C20.0957 19.2309 18.5333 21.9535 17.6411 23.0258C17.5639 23.1181 17.5205 23.2394 17.5157 23.3607C17.5012 25.2533 17.289 27.0828 16.773 28.3833C16.4788 29.1258 16.2136 29.8246 15.9483 30.5526C23.8332 30.0819 30.0882 23.4966 30.0882 15.4409C30.0882 7.38527 23.351 0.300171 15.0417 0.300171ZM12.9535 20.2986C11.4681 20.2986 10.2577 19.0806 10.2577 17.5859C10.2577 16.0912 11.4681 14.8732 12.9535 14.8732C14.4389 14.8732 15.6493 16.0912 15.6493 17.5859C15.6493 19.0806 14.4389 20.2986 12.9535 20.2986ZM17.67 9.57874C17.9931 10.394 17.2842 11.5975 16.8405 10.8356C16.7296 10.6415 16.7682 10.3795 16.8839 10.1271C16.8502 10.1465 16.8212 10.1611 16.8019 10.1708C16.2136 10.4814 15.0031 10.0689 14.9886 9.31668C14.9597 7.7007 16.8116 8.41406 17.4916 9.27301C17.0817 8.25391 17.371 6.27882 18.7552 7.09894C19.3965 7.47747 19.165 8.74406 18.6056 9.10802C18.5863 9.12258 18.5574 9.13713 18.5284 9.15654C18.7984 9.1808 19.0492 9.27301 19.1601 9.46713C19.6038 10.229 18.2198 10.263 17.6652 9.57874H17.67ZM20.5539 5.65767C20.853 4.65799 21.8512 5.46355 22.102 6.1284C22.049 5.41987 22.6132 4.26492 23.3077 5.04137C23.6259 5.40048 23.24 6.13325 22.8206 6.24971C22.8061 6.24971 22.7867 6.25941 22.7626 6.26428C22.9266 6.33222 23.0617 6.43896 23.0907 6.57971C23.2112 7.13777 22.3576 6.88058 22.1503 6.35161C22.1887 6.91941 21.5184 7.5163 21.393 6.95822C21.364 6.81749 21.4413 6.6622 21.5571 6.53117C21.5329 6.53117 21.5136 6.54088 21.4991 6.54088C21.0748 6.61367 20.414 6.11868 20.5539 5.65767ZM23.8381 12.8835C23.8091 12.8738 23.7706 12.8544 23.7272 12.8398C23.9105 13.1456 24.0021 13.4853 23.8815 13.7521C23.4137 14.8101 22.3238 13.3542 22.6229 12.2429C22.0055 13.2086 20.2018 13.3736 20.6648 12.3206C20.7853 12.0537 21.0941 11.8935 21.4413 11.8256C21.3979 11.8013 21.3592 11.7868 21.3304 11.7722C20.549 11.3791 20.0621 9.77285 20.8433 9.18565C22.5263 7.91909 23.1919 10.4377 22.8061 11.8256C23.5681 10.6075 25.8685 9.40889 26.0661 11.515C26.1577 12.4904 24.6483 13.2086 23.8332 12.8932L23.8381 12.8835Z" fill="#72CAEE"/>
</svg>
