<svg width="24" height="24" viewBox="0 0 24 24" fill="none" xmlns="http://www.w3.org/2000/svg">
<path fill-rule="evenodd" clip-rule="evenodd" d="M16.6302 15.0686C17.583 13.8081 18.148 12.2399 18.148 10.5405C18.148 6.37688 14.7564 3.00098 10.574 3.00098C6.39163 3.00098 3 6.37688 3 10.5405C3 14.7041 6.39163 18.08 10.574 18.08C12.2812 18.08 13.8566 17.5182 15.1229 16.5699C15.1775 16.6878 15.2532 16.7982 15.3517 16.8954L20.5611 22.081C21.0049 22.5228 21.7244 22.5228 22.1683 22.081C22.6106 21.6399 22.6106 20.9235 22.1683 20.4818L16.9574 15.2954C16.8604 15.1983 16.7498 15.1232 16.6302 15.0686ZM10.574 16.5721C13.9202 16.5721 16.6332 13.8715 16.6332 10.5405C16.6332 7.20955 13.9202 4.50889 10.574 4.50889C7.2278 4.50889 4.5148 7.20955 4.5148 10.5405C4.5148 13.8715 7.2278 16.5721 10.574 16.5721Z" fill="#8C8C8C"/>
</svg>
