<svg width="64" height="64" viewBox="0 0 64 64" fill="none" xmlns="http://www.w3.org/2000/svg">
<path fill-rule="evenodd" clip-rule="evenodd" d="M13.2079 47.1848L10.7276 58.7595C15.3409 54.6538 24.081 45.6101 24.7398 42.9749C16.2921 38.8024 15.4473 33.737 17.1369 32.889C17.8173 32.5474 19.1829 33.5772 20.9025 34.8739C23.4526 36.7969 26.7812 39.3069 29.8085 38.8024C33.6312 38.1653 36.7154 33.0523 38.7024 29.7584C39.6758 28.1446 40.3859 26.9674 40.7905 26.967C40.8089 26.967 40.8286 26.9668 40.8494 26.9666C41.7837 26.9572 44.9771 26.9251 35.7219 42.1301C36.0034 44.6627 35.0465 51.4613 32.3447 54.8412L32.6377 54.7848C56.2905 53.0926 58.8325 32 55.4465 21.8416C48.9685 2.40638 30.6665 3.81984 23.3452 6.63575C2.22528 14.7583 4.75918 37.0446 13.2079 47.1848ZM10.6736 59.0116L10.6738 59.0107L17.3203 57.7325L10.6736 59.0116ZM34.0323 32.0347C34.0323 34.8341 31.763 37.1034 28.9637 37.1034C26.1644 37.1034 23.8951 34.8341 23.8951 32.0347C23.8951 29.2354 26.1644 26.9661 28.9637 26.9661C31.763 26.9661 34.0323 29.2354 34.0323 32.0347ZM44.2183 14.3934C44.9597 13.9221 46.1071 12.7746 44.7662 11.9555C43.4253 11.1364 43.2965 13.0293 43.3996 14.0781C43.2965 13.0293 42.8014 11.1988 41.6462 12.2676C40.491 13.3364 41.8396 14.2342 42.6583 14.5495C42.1421 14.7367 42.1425 15.7122 42.7356 15.3352C43.3286 14.9581 43.4254 14.34 43.3996 14.0781C43.4254 14.34 43.6407 14.9269 44.2956 15.1791C44.9506 15.4314 44.8722 14.4636 44.2183 14.3934ZM37.925 19.7638C38.8442 18.6003 40.0372 16.1353 37.4559 15.583C34.8746 15.0307 35.7102 18.1111 36.4507 19.7203C35.7103 18.1111 33.9174 15.4787 32.6688 17.823C31.4203 20.1673 34.0571 20.8403 35.5316 20.8838C34.814 21.4699 35.3508 23.0201 36.0862 22.0893C36.8215 21.1585 36.6355 20.1221 36.4507 19.7203C36.6355 20.1221 37.3002 20.9345 38.4798 20.9693C39.6593 21.004 39.0028 19.5099 37.925 19.7638ZM43.1477 18.8919C40.0865 19.5634 41.5176 22.4826 42.6158 23.8583C41.5378 23.6571 40.5643 25.3413 41.9645 25.2928C43.3647 25.2443 44.1489 24.2758 44.366 23.7976C44.1489 24.2758 43.9344 25.5073 44.813 26.6079C45.6915 27.7084 46.5226 25.9585 45.4641 25.1733C47.2144 25.1127 50.3408 24.2976 48.8444 21.522C47.3481 18.7464 45.2353 21.8826 44.366 23.7976C45.2354 21.8826 46.2089 18.2204 43.1477 18.8919Z" fill="#5CBBE0"/>
</svg>
